<?xml version="1.0" encoding="iso-8859-1"?>
<!-- Generator: Adobe Illustrator 19.0.0, SVG Export Plug-In . SVG Version: 6.00 Build 0)  -->
<svg version="1.1" id="Layer_1" xmlns="http://www.w3.org/2000/svg" xmlns:xlink="http://www.w3.org/1999/xlink" x="0px" y="0px"
	 viewBox="0 0 512.001 512.001" style="enable-background:new 0 0 512.001 512.001;" xml:space="preserve">
<polygon style="fill:#CEE8FA;" points="273.19,256.001 132.562,174.809 132.562,337.191 "/>
<path style="fill:#2D527C;" d="M280.094,244.041l-140.628-81.19c-4.272-2.466-9.536-2.466-13.809,0
	c-4.272,2.466-6.904,7.024-6.904,11.958v29.064H13.809C6.182,203.873,0,210.056,0,217.682v76.637
	c0,7.626,6.182,13.809,13.809,13.809h104.945v29.064c0,4.934,2.632,9.492,6.904,11.958c2.136,1.233,4.52,1.85,6.904,1.85
	s4.768-0.617,6.904-1.85l140.628-81.191c4.272-2.466,6.904-7.024,6.904-11.958C286.998,251.067,284.366,246.509,280.094,244.041z
	 M27.617,280.511v-49.02h91.136v49.02H27.617z M146.371,313.274v-18.956v-76.637v-18.956l99.202,57.275L146.371,313.274z"/>
<path style="fill:#CEE8FA;" d="M323.513,113.415v285.17c59.418-20.133,102.183-76.365,102.183-142.586
	S382.932,133.548,323.513,113.415z"/>
<g>
	<path style="fill:#2D527C;" d="M323.515,412.393c-2.85,0-5.671-0.882-8.048-2.586c-3.616-2.593-5.762-6.772-5.762-11.222v-285.17
		c0-4.45,2.146-8.629,5.762-11.222s8.26-3.284,12.477-1.856c66.728,22.611,111.561,85.167,111.561,155.664
		s-44.832,133.052-111.561,155.664C326.499,412.153,325.002,412.393,323.515,412.393z M337.322,134.179v243.642
		c45.286-23.071,74.566-69.852,74.566-121.822S382.61,157.25,337.322,134.179z"/>
	<path style="fill:#2D527C;" d="M275.184,492.817c-78.997,0-152.511-39.19-196.65-104.834c-4.256-6.328-2.575-14.909,3.755-19.163
		c6.328-4.257,14.908-2.574,19.163,3.753c38.999,58,103.945,92.628,173.732,92.628c115.354,0,209.199-93.846,209.199-209.199
		S390.537,46.801,275.184,46.801c-69.786,0-134.733,34.628-173.732,92.628c-4.254,6.328-12.834,8.009-19.163,3.753
		c-6.328-4.256-8.009-12.835-3.753-19.163c44.139-65.644,117.653-104.834,196.65-104.834c130.58,0,236.816,106.236,236.816,236.816
		S405.765,492.817,275.184,492.817z"/>
</g>
<g>
</g>
<g>
</g>
<g>
</g>
<g>
</g>
<g>
</g>
<g>
</g>
<g>
</g>
<g>
</g>
<g>
</g>
<g>
</g>
<g>
</g>
<g>
</g>
<g>
</g>
<g>
</g>
<g>
</g>
</svg>
