<svg id="_x31__x2C_5" enable-background="new 0 0 24 24" height="512" viewBox="0 0 24 24" width="512" xmlns="http://www.w3.org/2000/svg"><path d="m23.25 4.5v.75h-22.5v-.75c0-1.55 1.26-2.81 2.81-2.81h16.88c1.55 0 2.81 1.26 2.81 2.81z" fill="#607d8b"/><path d="m23.25 5.25v15.87c0 .62-.5 1.13-1.12 1.13h-20.26c-.62 0-1.12-.51-1.12-1.13v-15.87z" fill="#eceff1"/><path d="m8 12.458c-.804 0-1.458-.654-1.458-1.458s.654-1.458 1.458-1.458 1.458.654 1.458 1.458-.654 1.458-1.458 1.458z" fill="#2196f3"/><path d="m10.632 18.12h-5.265c-.335 0-.607-.272-.607-.608v-.405c0-1.228.999-2.227 2.227-2.227h2.025c1.228 0 2.227.999 2.227 2.227v.405c.001.336-.271.608-.607.608z" fill="#2196f3"/><path d="m8 13c-1.103 0-2-.897-2-2s.897-2 2-2 2 .897 2 2-.897 2-2 2zm0-2.5c-.275 0-.5.224-.5.5s.225.5.5.5.5-.224.5-.5-.225-.5-.5-.5z"/><path d="m11.25 18.5c-.414 0-.75-.336-.75-.75v-1c0-.689-.561-1.25-1.25-1.25h-2.5c-.689 0-1.25.561-1.25 1.25v1c0 .414-.336.75-.75.75s-.75-.336-.75-.75v-1c0-1.517 1.233-2.75 2.75-2.75h2.5c1.517 0 2.75 1.233 2.75 2.75v1c0 .414-.336.75-.75.75z"/><path d="m18.75 16c-.173 0-.347-.059-.488-.181-.314-.27-.351-.743-.081-1.058l1.081-1.262-1.081-1.262c-.27-.314-.233-.788.081-1.058.315-.268.787-.233 1.058.081l1.5 1.75c.241.281.241.695 0 .977l-1.5 1.75c-.149.174-.359.263-.57.263z"/><path d="m20 14.25h-5.25c-.414 0-.75-.336-.75-.75s.336-.75.75-.75h5.25c.414 0 .75.336.75.75s-.336.75-.75.75z"/><path d="m21.25 23h-18.5c-1.517 0-2.75-1.233-2.75-2.75v-16.5c0-1.517 1.233-2.75 2.75-2.75h18.5c1.517 0 2.75 1.233 2.75 2.75v16.5c0 1.517-1.233 2.75-2.75 2.75zm-18.5-20.5c-.689 0-1.25.561-1.25 1.25v16.5c0 .689.561 1.25 1.25 1.25h18.5c.689 0 1.25-.561 1.25-1.25v-16.5c0-.689-.561-1.25-1.25-1.25z"/><path d="m23.25 6h-22.5c-.414 0-.75-.336-.75-.75s.336-.75.75-.75h22.5c.414 0 .75.336.75.75s-.336.75-.75.75z"/></svg>