<svg xmlns="http://www.w3.org/2000/svg" viewBox="0 0 1440 320"><path fill="#00abeb" fill-opacity="1" d="M0,96L34.3,106.7C68.6,117,137,139,206,133.3C274.3,128,343,96,411,106.7C480,117,549,171,617,181.3C685.7,192,754,160,823,149.3C891.4,139,960,149,1029,149.3C1097.1,149,1166,139,1234,149.3C1302.9,160,1371,192,1406,208L1440,224L1440,0L1405.7,0C1371.4,0,1303,0,1234,0C1165.7,0,1097,0,1029,0C960,0,891,0,823,0C754.3,0,686,0,617,0C548.6,0,480,0,411,0C342.9,0,274,0,206,0C137.1,0,69,0,34,0L0,0Z"></path></svg>